# xmcd CD database file
# Copyright (C) 1996 Ti Kan
#
# Track frame offsets:
# 	150
# 	14705
# 	25635
# 	40520
# 	54435
# 	72177
# 	85900
# 	103372
# 	113912
# 	130737
#
# Disc length: 1897 seconds
#
# Revision: 1
# Processed by: cddbd v1.4b41PL1 Copyright (c) Steve Scherf et al.
# Submitted via: DiscPlay 3.3.1
#
DISCID=7e07670a
DTITLE=Shelby Lynne - Restless
DYEAR=1900
DGENRE=
TTITLE0=Slow Me Down
TTITLE1=Another Chance At Love
TTITLE2=Talkin' To Myself Again
TTITLE3=Restless
TTITLE4=Just For The Touch Of Your Hand
TTITLE5=Hey Now Little Darlin'
TTITLE6=I'm Not The One
TTITLE7=Reach For The Rhythm
TTITLE8=Wish I Knew
TTITLE9=Swingtown
EXTD=
EXTT0=
EXTT1=
EXTT2=
EXTT3=
EXTT4=
EXTT5=
EXTT6=
EXTT7=
EXTT8=
EXTT9=
PLAYORDER=
